<svg width="30" height="30" viewBox="0 0 30 30" fill="none" xmlns="http://www.w3.org/2000/svg">
<rect width="30" height="30" rx="10" fill="#3A3B3C"/>
<path d="M21.9886 11.0142C21.9886 10.9982 21.9996 10.9826 21.9989 10.9668L17.7266 15.0834L21.9938 19.0685C21.9963 19.04 21.9886 19.0113 21.9886 18.9823V11.0142Z" fill="white"/>
<path d="M17.0757 15.7188L15.3316 17.3968C15.2434 17.4817 15.1294 17.5243 15.0153 17.5243C14.9037 17.5243 14.792 17.4835 14.7043 17.4018L12.965 15.781L8.66992 19.921C8.77436 19.9585 8.88646 19.9877 9.00385 19.9877H21.0269C21.2012 19.9877 21.3647 19.9346 21.5068 19.8554L17.0757 15.7188Z" fill="white"/>
<path d="M15.0103 16.4392L21.5304 10.1584C21.3828 10.0706 21.211 10.0117 21.0268 10.0117H9.0038C8.76397 10.0117 8.54421 10.1048 8.37305 10.2469L15.0103 16.4392Z" fill="white"/>
<path d="M8 11.168V18.983C8 19.0727 8.02062 19.1592 8.043 19.2418L12.2848 15.1571L8 11.168Z" fill="white"/>
</svg>

